PathFileType	4	(X/Y/Z)	33_2_59_p1_0-176_filt_butterworth.trc
DataRate	CameraRate	NumFrames	NumMarkers	Units	OrigDataRate	OrigDataStartFrame	OrigNumFrames
59.0	59.0	6	27	m	59.0	154	176
Frame#	Time	RHip			RKnee			RAnkle			RBigToe			RSmallToe			RHeel			LHip			LKnee			LAnkle			LBigToe			LSmallToe			LHeel			Neck			Head			Nose			RShoulder			RElbow			RWrist			RThumb			RIndex			RPinky			LShoulder			LElbow			LWrist			LThumb			LIndex			LPinky			
		X1	Y1	Z1	X2	Y2	Z2	X3	Y3	Z3	X4	Y4	Z4	X5	Y5	Z5	X6	Y6	Z6	X7	Y7	Z7	X8	Y8	Z8	X9	Y9	Z9	X10	Y10	Z10	X11	Y11	Z11	X12	Y12	Z12	X13	Y13	Z13	X14	Y14	Z14	X15	Y15	Z15	X16	Y16	Z16	X17	Y17	Z17	X18	Y18	Z18	X19	Y19	Z19	X20	Y20	Z20	X21	Y21	Z21	X22	Y22	Z22	X23	Y23	Z23	X24	Y24	Z24	X25	Y25	Z25	X26	Y26	Z26	X27	Y27	Z27	
154	2.610169491525424	0.31635239768640655	0.24428453458145863	0.19226785043851655	0.2827478992319174	0.5066834550057893	0.5637288804367644	0.26039418895716737	0.7105090246579967	0.9160609254204075	0.26935095655027974	0.5432437596684985	0.9919216470014803	0.3271078499286032	0.6028161663368015	0.9911937513114121	0.23731798147068425	0.8413114396559455	0.9697628574291918	0.12031189094756195	0.24463209535063626	0.19204967125234776	0.13343898135266652	0.49797565416519607	0.5530639625780297	0.10543158095300673	0.7791935037839781	0.9321469599002585	0.11118131078820788	0.5586583237399491	0.9862602192553123	0.060122196990286245	0.6243065863746957	0.9866953586118805	0.09900027781572196	0.883622203096554	0.9598584523503295	0.21887240386138362	-0.024205360895171484	-0.34079397957243357	0.2135663486810089	-0.16116836122498604	-0.538834977660631	0.23438393803196902	-0.18119154757181366	-0.3935443937282638	0.3844507772483804	0.02372360484751406	-0.2433232373760521	0.39072541977446523	0.0958147214471829	0.007610902267991239	0.2813340415204513	0.1151820486366228	0.2544578539911491	0.1828333348219385	0.1395243545036147	0.35330663671029316	0.18671445369704315	0.16999932313626243	0.3667123283353298	0.2245334534775001	0.20784487328997492	0.36417320647544643	0.05534783325616986	0.048961069974900844	-0.26628774593479326	0.03941919656440724	0.14659364107321698	0.00025288010569743293	0.13658463098548476	0.14294207255187513	0.2469171151274212	0.1956627406935057	0.14513631017307133	0.32248007005298385	0.20880872223263147	0.15099715054513327	0.36593243543195103	0.1865659348920886	0.17662127980746697	0.3648388197346749
155	2.6271186440677967	0.3166197754303839	0.24591584594488036	0.19309991640718063	0.28290753854973494	0.5055945592646833	0.5609002980431121	0.2616151985081998	0.7083210430894541	0.9163865595788345	0.2694387951232393	0.5466451775716371	0.9937170819803771	0.32710298585519376	0.602720385621112	0.9912285659537369	0.23872583440462378	0.8341549443609393	0.9692877094089862	0.12060340765221764	0.24919733241440994	0.19223484195633406	0.13354040125103783	0.49574560006444185	0.5522467983510205	0.106682698823109	0.7790555518379706	0.9321692625073913	0.11128547099077107	0.5584144362233333	0.9862329712268942	0.06278860539220261	0.617168071379305	0.9859764305633065	0.09863560811978488	0.8842186101453098	0.9601296488945154	0.21887685939465965	-0.02405262137370518	-0.34046553475665065	0.21353677840991978	-0.16089294297655765	-0.5377798492122914	0.2315924480737675	-0.17879511336296228	-0.3937911268783237	0.38435611489399996	0.02439115793421708	-0.24258236437221511	0.39146225187227035	0.10015534389377494	0.009133832768640717	0.2771644608819248	0.11560651611609409	0.25243177501839575	0.17935333674110351	0.14854163943648502	0.3464975920624112	0.181367178256176	0.18305737252054463	0.3604314876465539	0.21226268474795523	0.2260541132553259	0.35746482194688833	0.0554045435162651	0.049426226514032036	-0.2655979428179516	0.03663692310271336	0.14626764084695565	0.002512770793699273	0.12794497162993096	0.14925331447886767	0.24528355682871839	0.18924807388464296	0.15423958594568593	0.31477866107636737	0.19982136699330266	0.1685043284427341	0.36232691610421	0.18011707197584406	0.17738283523476475	0.3641632338048268
156	2.6440677966101696	0.3170473292572277	0.24729208399898314	0.19461123845523542	0.28365043349516267	0.5035932738496041	0.5604793469483937	0.26201609661974073	0.7079905963631425	0.9166782352788809	0.27127546024395327	0.5507136545418384	0.9950502686441729	0.3271275835729542	0.6028931032011817	0.9913430346806044	0.24039353581595596	0.8256056233587283	0.9686367559701828	0.11877177865532221	0.25175396493290264	0.19343323716680821	0.13378822256279144	0.49611880780909096	0.5535545875469123	0.10685574398163575	0.7794161312193058	0.9332045693821327	0.11141850096437705	0.5581195445287583	0.986199356504898	0.06691761969191674	0.6059169757209957	0.9856431211477519	0.09803874575271483	0.8849238925649174	0.9607360272713292	0.21910014341843087	-0.022671432646204612	-0.34011700482329793	0.21354049797956765	-0.16068342996128046	-0.5369758595995134	0.2295004211737901	-0.17551655719861564	-0.3941047735668957	0.3842535954811076	0.024866360662601956	-0.24230159352067965	0.3935025574030712	0.10611236225822802	0.010517169918046906	0.2762609467601148	0.11650117457191798	0.25013533511963904	0.17746671514576934	0.15307312814614107	0.34208534791553985	0.17838130456551843	0.1890381487139282	0.35732600975247414	0.20524965200481116	0.23737077388510158	0.3528401604282729	0.05541068304295062	0.04998486480658229	-0.26584121594523435	0.034572357771424735	0.14542626303475467	0.0029883963297784796	0.12109879370059314	0.1546929160162492	0.2457279791510552	0.18561890878071624	0.1635613727062791	0.3097941919797857	0.19553963670001	0.18577413433508563	0.3602418264786354	0.17819809036340442	0.17930232357510145	0.3640629219618867
157	2.6610169491525424	0.31729638631029233	0.24831013000551752	0.1964663743788886	0.2852592719850283	0.4997772170817501	0.5621298026156328	0.26199133832088584	0.7083351614152664	0.9168020768737263	0.27346641056924337	0.5527771576984785	0.9955291473711332	0.32721180492861296	0.6035669865012825	0.9914434550067852	0.2417183766120874	0.8199304572106705	0.9681669699293628	0.11508616089668734	0.2518566045781558	0.19550349054964758	0.13402851469982688	0.49752437108742775	0.5554084393829458	0.10660824224617951	0.7803054058695847	0.9346930525495943	0.1115289256019806	0.557872880528131	0.9861636954747122	0.07015346775137299	0.5970426038370358	0.9855952182015361	0.09753930110784298	0.8853322955328813	0.9611739342085056	0.219646574794389	-0.019433371071367708	-0.34022745182508046	0.2135681923841317	-0.1606048902865435	-0.5366418549034554	0.22870817478581415	-0.17288356633912497	-0.3943301289611697	0.38426514265950173	0.024884367376828902	-0.24232348465968323	0.3953373686670805	0.11073027815711073	0.01119358728674859	0.2770746094879208	0.11881083508063982	0.24839941594161874	0.17625818094895812	0.15543536919561712	0.3405177556268152	0.17711497798252818	0.1902783129265162	0.3576246853921451	0.20237222580630068	0.24187596763699937	0.35027608917514846	0.05540478773890962	0.05037473529174566	-0.2662668823534574	0.032822178183962325	0.14407384791381173	0.001647525715632125	0.11499111482528321	0.160099358124901	0.24751988874585445	0.18538986524688703	0.17138233424234856	0.3064862471262812	0.1945610184395541	0.19862593414154955	0.3596368068449899	0.17725260002944646	0.1837143820085364	0.3648050077240976
158	2.6779661016949152	0.3173354228953038	0.24890814550008517	0.19834464205197766	0.2873238440087774	0.4951767364823028	0.5646407834646345	0.26193827771871386	0.7087809003167324	0.9168524080588489	0.27429043820995636	0.5516468376972682	0.9954454620537738	0.3273217158900258	0.6044677812917427	0.9914805310951287	0.2421048075908735	0.8164985473173484	0.9682974476381306	0.11139810488795676	0.25123764111116054	0.19866176656881332	0.13418173933044697	0.4986651991630571	0.5567600015235572	0.10646752339808606	0.7811510571246703	0.935826132168473	0.11158308976301051	0.5577815276078006	0.9861325994246068	0.07149926625935307	0.5932886364256673	0.9856173878876703	0.09732121894372708	0.8854080179888311	0.9612778469841894	0.22033915267273488	-0.01523769398503582	-0.34097731823215105	0.21361221990227702	-0.16063424922029795	-0.536600631283247	0.2287344796646803	-0.17170905906313186	-0.39442267285318444	0.38472345289435417	0.02366366059292916	-0.24225545845361876	0.39620788932629025	0.11278879849755338	0.01153537380991518	0.2780796395399536	0.12124890817638864	0.24759040355573564	0.17551709582432282	0.15743921786856602	0.3405173304756514	0.17716350292212174	0.1907110462664631	0.35903162489961804	0.20102890155494882	0.2425505620099901	0.34862039111671317	0.055403826501497055	0.05056096505923395	-0.26650859109889163	0.03147509654052709	0.14283381047616872	-0.0004571119734160738	0.10932614733627108	0.16750948944783087	0.24915369673973914	0.18810756524311972	0.17802254773979384	0.30383651149637625	0.19476611680239844	0.20791325550402107	0.3591743367081093	0.17579906147107063	0.18948977901883993	0.36593118231075306
159	2.694915254237288	0.31731879085762427	0.2492019857236667	0.19981968684960433	0.2889133769622933	0.4921210772664245	0.5668420127835944	0.26200718593439054	0.7091961438780516	0.916900793050641	0.2735667298275855	0.5482698707895246	0.9951238552939885	0.327372447062452	0.6049478780907553	0.9914136947324937	0.24179898211409873	0.8134840769679857	0.9692456507207818	0.10932675828677264	0.2510719662397416	0.2020187932291323	0.13426182917351953	0.49917175894617044	0.5575617168914251	0.1064779978352983	0.7815103273140172	0.9363164447357493	0.11159775853269574	0.5578067775570664	0.9860964713568264	0.07147779611274571	0.5932201835339634	0.9856612326667067	0.09731219809077421	0.8853216002602486	0.9611760305215302	0.22083693311154068	-0.012103297950685666	-0.34184435150207354	0.21365590763915715	-0.16070498346850448	-0.5366305989420335	0.22892276788027416	-0.17154949873964306	-0.39445727432125743	0.3858811693659579	0.020564547231600384	-0.24169923744457947	0.3964826779174032	0.11254612824237181	0.01207263055089308	0.2785577329698847	0.12256324361340214	0.24745329094428922	0.1750317812985746	0.15953898617117385	0.34002242929576953	0.17763391894566605	0.19217590017729697	0.35884133266854495	0.1997906064652575	0.24209204934637438	0.3470845233133866	0.05540869269673809	0.05062325542425237	-0.2666259324305343	0.031244476429824718	0.14260899431354482	-0.0019307524313715398	0.1048020110942195	0.17688622205045323	0.24858233004441826	0.19123651221935745	0.18394799511512672	0.3013372486323822	0.19468622709499023	0.21566290745849592	0.35748629624637246	0.17439204398871166	0.19359812811424337	0.3664540713529411
